<svg xmlns="http://www.w3.org/2000/svg" viewBox="0 0 310.83 127.16"><defs><style>.cls-1{fill:#d9bc90;}.cls-2{fill:#e6e6e6;}.cls-3{font-size:48px;fill:#333;font-family:Osaka;}</style></defs><g id="レイヤー_2" data-name="レイヤー 2"><g id="レイヤー_1-2" data-name="レイヤー 1"><path class="cls-1" d="M13.84,39.21s12.05-3.48,14.29-4.64A25.77,25.77,0,0,0,33,30.73a19,19,0,0,0,3.57,5.36c1.78,1.78,5.91,3.12,5.91,3.12,5.92-3.12,8.37-8.48,8.37-14.73a21.35,21.35,0,0,0-3.57-11.22V1.84A1.83,1.83,0,0,0,44.26.48L37.5,6.62s-6.25-1.78-9.82-1.78-8.93,1.78-8.93,1.78L12.19.71A1.68,1.68,0,0,0,9.38,2V14S4.91,17.78,4.91,25.82,13.84,39.21,13.84,39.21Z"/><path class="cls-2" d="M13.84,39.21a79.39,79.39,0,0,0-6.7,12.06c-.33.77-.61,1.55-.87,2.33,2.37-3.53,5.19-7.22,8-9.48,4.46-3.57,10.71-6.25,16.07-6.25s9.91,3.67,12.5,6.25c1.69,1.7,5.18,7,7.51,10.62-.37-1.45-.78-2.93-1.26-4.37C47.32,45,42.52,39.21,42.52,39.21s-4.13-1.34-5.91-3.12A19,19,0,0,1,33,30.73a25.77,25.77,0,0,1-4.91,3.84C25.89,35.73,13.84,39.21,13.84,39.21Z"/><path class="cls-1" d="M25.45,116.8a9.42,9.42,0,0,1,4.91-3,8.1,8.1,0,0,1,4.15.08c-.31-4.64.31-17,.31-17s8-.89,12.5-4.46,8.93-9.82,8.93-16.07-4.08-12.5-4.08-12.5-.6-4.26-1.8-9C48,51.1,44.55,45.82,42.86,44.12c-2.59-2.58-7.15-6.25-12.5-6.25s-11.61,2.68-16.07,6.25c-2.83,2.26-5.65,6-8,9.48A40.81,40.81,0,0,0,4.46,64.66,14.11,14.11,0,0,0,0,75.37c0,7.15,4.46,13.4,8.93,17s11.61,3.57,14.28,4.46,2.24,5.49,2.24,8.1Z"/><path class="cls-2" d="M34.82,115.55a4,4,0,0,1-.31-1.7,8.1,8.1,0,0,0-4.15-.08,9.42,9.42,0,0,0-4.91,3v1.45c0,2.66,6.69,8.91,9.37,8.91s5.36-1.79,5.36-4.46S35.71,116.45,34.82,115.55Z"/><text class="cls-3" transform="translate(70.83 42.42)">語尾にゃん<tspan x="0" y="59">掲示板</tspan></text></g></g></svg>